{
  "accessors": [
    {
      "bufferView": 1,
      "componentType": 5126,
      "count": 65532,
      "max": [
        1.2314667701721191,
        3.0403721332550049,
        1.6576206684112549
      ],
      "min": [
        -1.4343798160552979,
        0.00644725002348423,
        -2.2039744853973389
      ],
      "type": "VEC3"
    },
    {
      "bufferView": 1,
      "byteOffset": 786384,
      "componentType": 5126,
      "count": 65532,
      "max": [
        0.99997162818908691,
        0.99997401237487793,
        1
      ],
      "min": [
        -0.99999982118606567,
        -0.99998325109481812,
        -1
      ],
      "type": "VEC3"
    },
    {
      "bufferView": 0,
      "componentType": 5125,
      "count": 336660,
      "max": [
        65531
      ],
      "min": [
        0
      ],
      "type": "SCALAR"
    },
    {
      "bufferView": 1,
      "byteOffset": 1572768,
      "componentType": 5126,
      "count": 65532,
      "max": [
        1.6302677392959595,
        2.9033236503601074,
        1.6616297960281372
      ],
      "min": [
        -0.96121853590011597,
        0.0069711199030280113,
        -2.2039744853973389
      ],
      "type": "VEC3"
    },
    {
      "bufferView": 1,
      "byteOffset": 2359152,
      "componentType": 5126,
      "count": 65532,
      "max": [
        0.99999743700027466,
        0.9999811053276062,
        1
      ],
      "min": [
        -0.99998247623443604,
        -0.99998533725738525,
        -1
      ],
      "type": "VEC3"
    },
    {
      "bufferView": 0,
      "byteOffset": 1346640,
      "componentType": 5125,
      "count": 323013,
      "max": [
        65531
      ],
      "min": [
        0
      ],
      "type": "SCALAR"
    },
    {
      "bufferView": 1,
      "byteOffset": 3145536,
      "componentType": 5126,
      "count": 65532,
      "max": [
        1.7120451927185059,
        2.6599717140197754,
        1.4879610538482666
      ],
      "min": [
        -0.55300122499465942,
        0.060892179608345032,
        -2.2039744853973389
      ],
      "type": "VEC3"
    },
    {
      "bufferView": 1,
      "byteOffset": 3931920,
      "componentType": 5126,
      "count": 65532,
      "max": [
        0.99999696016311646,
        0.99991953372955322,
        1
      ],
      "min": [
        -0.99991536140441895,
        -0.99996399879455566,
        -1
      ],
      "type": "VEC3"
    },
    {
      "bufferView": 0,
      "byteOffset": 2638692,
      "componentType": 5125,
      "count": 321903,
      "max": [
        65531
      ],
      "min": [
        0
      ],
      "type": "SCALAR"
    },
    {
      "bufferView": 1,
      "byteOffset": 4718304,
      "componentType": 5126,
      "count": 65532,
      "max": [
        1.0422292947769165,
        1.4773428440093994,
        1.6616297960281372
      ],
      "min": [
        -1.1476023197174072,
        0.01724063977599144,
        -2.1032810211181641
      ],
      "type": "VEC3"
    },
    {
      "bufferView": 1,
      "byteOffset": 5504688,
      "componentType": 5126,
      "count": 65532,
      "max": [
        0.99999696016311646,
        0.9999392032623291,
        0.99999195337295532
      ],
      "min": [
        -0.99997609853744507,
        -0.99999821186065674,
        -0.9997328519821167
      ],
      "type": "VEC3"
    },
    {
      "bufferView": 0,
      "byteOffset": 3926304,
      "componentType": 5125,
      "count": 332652,
      "max": [
        65531
      ],
      "min": [
        0
      ],
      "type": "SCALAR"
    },
    {
      "bufferView": 1,
      "byteOffset": 6291072,
      "componentType": 5126,
      "count": 65532,
      "max": [
        0.8144296407699585,
        3.0586855411529541,
        1.6429530382156372
      ],
      "min": [
        -1.5357620716094971,
        0.0068666897714138031,
        -2.2039744853973389
      ],
      "type": "VEC3"
    },
    {
      "bufferView": 1,
      "byteOffset": 7077456,
      "componentType": 5126,
      "count": 65532,
      "max": [
        0.99997830390930176,
        0.99999439716339111,
        1
      ],
      "min": [
        -0.99997872114181519,
        -0.99998205900192261,
        -1
      ],
      "type": "VEC3"
    },
    {
      "bufferView": 0,
      "byteOffset": 5256912,
      "componentType": 5125,
      "count": 329004,
      "max": [
        65531
      ],
      "min": [
        0
      ],
      "type": "SCALAR"
    },
    {
      "bufferView": 1,
      "byteOffset": 7863840,
      "componentType": 5126,
      "count": 65532,
      "max": [
        1.2085433006286621,
        1.3195796012878418,
        1.794892430305481
      ],
      "min": [
        -0.19599567353725433,
        0.031310319900512695,
        0.31385460495948792
      ],
      "type": "VEC3"
    },
    {
      "bufferView": 1,
      "byteOffset": 8650224,
      "componentType": 5126,
      "count": 65532,
      "max": [
        0.99999946355819702,
        0.99998950958251953,
        0.9999845027923584
      ],
      "min": [
        -0.99994814395904541,
        -0.99999392032623291,
        -0.99990922212600708
      ],
      "type": "VEC3"
    },
    {
      "bufferView": 0,
      "byteOffset": 6572928,
      "componentType": 5125,
      "count": 334530,
      "max": [
        65531
      ],
      "min": [
        0
      ],
      "type": "SCALAR"
    },
    {
      "bufferView": 1,
      "byteOffset": 9436608,
      "componentType": 5126,
      "count": 65532,
      "max": [
        1.3332757949829102,
        1.3170864582061768,
        1.7940213680267334
      ],
      "min": [
        -0.19654631614685059,
        -0.26020598411560059,
        -0.24550296366214752
      ],
      "type": "VEC3"
    },
    {
      "bufferView": 1,
      "byteOffset": 10222992,
      "componentType": 5126,
      "count": 65532,
      "max": [
        0.99999946355819702,
        0.99998295307159424,
        0.9999845027923584
      ],
      "min": [
        -0.99998676776885986,
        -0.99999403953552246,
        -0.99980729818344116
      ],
      "type": "VEC3"
    },
    {
      "bufferView": 0,
      "byteOffset": 7911048,
      "componentType": 5125,
      "count": 319878,
      "max": [
        65531
      ],
      "min": [
        0
      ],
      "type": "SCALAR"
    },
    {
      "bufferView": 1,
      "byteOffset": 11009376,
      "componentType": 5126,
      "count": 32986,
      "max": [
        1.7402074337005615,
        3.0146429538726807,
        0.63960587978363037
      ],
      "min": [
        -1.5308400392532349,
        -0.26010322570800781,
        -2.2039744853973389
      ],
      "type": "VEC3"
    },
    {
      "bufferView": 1,
      "byteOffset": 11405208,
      "componentType": 5126,
      "count": 32986,
      "max": [
        0.99990063905715942,
        0.9999811053276062,
        1
      ],
      "min": [
        -0.99945825338363647,
        -0.9996832013130188,
        -1
      ],
      "type": "VEC3"
    },
    {
      "bufferView": 0,
      "byteOffset": 9190560,
      "componentType": 5125,
      "count": 180624,
      "max": [
        32985
      ],
      "min": [
        0
      ],
      "type": "SCALAR"
    }
  ],
  "asset": {
    "extras": {
      "author": "xbodya13 (https://sketchfab.com/xbodya13)",
      "license": "CC-BY-4.0 (http://creativecommons.org/licenses/by/4.0/)",
      "source": "https://sketchfab.com/models/1f717d152218428aa653ed88cefcf5d0",
      "title": "Man"
    },
    "generator": "Sketchfab-3.18.6",
    "version": "2.0"
  },
  "bufferViews": [
    {
      "buffer": 0,
      "byteLength": 9913056,
      "byteOffset": 0,
      "name": "floatBufferViews",
      "target": 34963
    },
    {
      "buffer": 0,
      "byteLength": 11801040,
      "byteOffset": 9913056,
      "byteStride": 12,
      "name": "floatBufferViews",
      "target": 34962
    }
  ],
  "buffers": [
    {
      "byteLength": 21714096,
      "uri": "scene.bin"
    }
  ],
  "materials": [
    {
      "doubleSided": true,
      "emissiveFactor": [
        0,
        0,
        0
      ],
      "name": "Scene_-_Root",
      "pbrMetallicRoughness": {
        "baseColorFactor": [
          1,
          1,
          1,
          1
        ],
        "metallicFactor": 0,
        "roughnessFactor": 0.20000000000000001
      }
    }
  ],
  "meshes": [
    {
      "primitives": [
        {
          "attributes": {
            "NORMAL": 1,
            "POSITION": 0
          },
          "indices": 2,
          "material": 0,
          "mode": 4
        }
      ]
    },
    {
      "primitives": [
        {
          "attributes": {
            "NORMAL": 4,
            "POSITION": 3
          },
          "indices": 5,
          "material": 0,
          "mode": 4
        }
      ]
    },
    {
      "primitives": [
        {
          "attributes": {
            "NORMAL": 7,
            "POSITION": 6
          },
          "indices": 8,
          "material": 0,
          "mode": 4
        }
      ]
    },
    {
      "primitives": [
        {
          "attributes": {
            "NORMAL": 10,
            "POSITION": 9
          },
          "indices": 11,
          "material": 0,
          "mode": 4
        }
      ]
    },
    {
      "primitives": [
        {
          "attributes": {
            "NORMAL": 13,
            "POSITION": 12
          },
          "indices": 14,
          "material": 0,
          "mode": 4
        }
      ]
    },
    {
      "primitives": [
        {
          "attributes": {
            "NORMAL": 16,
            "POSITION": 15
          },
          "indices": 17,
          "material": 0,
          "mode": 4
        }
      ]
    },
    {
      "primitives": [
        {
          "attributes": {
            "NORMAL": 19,
            "POSITION": 18
          },
          "indices": 20,
          "material": 0,
          "mode": 4
        }
      ]
    },
    {
      "primitives": [
        {
          "attributes": {
            "NORMAL": 22,
            "POSITION": 21
          },
          "indices": 23,
          "material": 0,
          "mode": 4
        }
      ]
    }
  ],
  "nodes": [
    {
      "children": [
        1
      ],
      "name": "RootNode (gltf orientation matrix)",
      "rotation": [
        -0.70710678118654746,
        -0,
        -0,
        0.70710678118654757
      ]
    },
    {
      "children": [
        2
      ],
      "name": "RootNode (model correction matrix)"
    },
    {
      "children": [
        3,
        4,
        5,
        6,
        7,
        8,
        9,
        10
      ],
      "name": "efffeff91cc54531bc4a3beffcf4216e.obj.cleaner"
    },
    {
      "mesh": 0,
      "name": ""
    },
    {
      "mesh": 1,
      "name": ""
    },
    {
      "mesh": 2,
      "name": ""
    },
    {
      "mesh": 3,
      "name": ""
    },
    {
      "mesh": 4,
      "name": ""
    },
    {
      "mesh": 5,
      "name": ""
    },
    {
      "mesh": 6,
      "name": ""
    },
    {
      "mesh": 7,
      "name": ""
    }
  ],
  "scene": 0,
  "scenes": [
    {
      "name": "OSG_Scene",
      "nodes": [
        0
      ]
    }
  ]
}

